PathFileType	4	(X/Y/Z)	D:\TRACE\v60_Jaco2_6-2-23\JustArmDRS_Motion3_3-platform.trc
DataRate	CameraRate	NumFrames	NumMarkers	Units	OrigDataRate	OrigDataStartFrame	OrigNumFrames
100.00	100.00	      42	5	mm	100.00	2626	      7000
Frame#	Time	Left_Front			Right_Front			Left_Aft			Right_Aft			Post			
		X1	Y1	Z1	X2	Y2	Z2	X3	Y3	Z3	X4	Y4	Z4	X5	Y5	Z5	

2626	26.250	-798.09485	68.29071	-634.63812	772.74756	65.95467	-611.64929	-729.23682	-29.69217	495.29111	685.29749	-39.92143	600.51361	-3.48363	1388.80347	-831.69958	
2627	26.260	-797.93604	67.68043	-634.54657	772.74048	65.39338	-611.81958	-729.19110	-29.54516	495.21927	685.48529	-39.20653	600.35297	-3.54266	1387.94348	-832.83948	
2628	26.270	-797.82495	66.94001	-634.68768	772.87842	64.80349	-611.92627	-729.09760	-29.24119	495.02502	685.45557	-38.96743	600.31305	-3.39750	1387.31519	-833.83929	
2629	26.280	-797.88391	66.29451	-634.93585	772.80371	64.41917	-612.14752	-729.04486	-28.77646	494.86310	686.46729	-37.91753	600.33630	-3.24622	1386.72083	-835.08386	
2630	26.290	-797.96759	65.95967	-635.07880	772.71912	63.86934	-612.29535	-729.09589	-28.21063	494.67734	685.83997	-37.82509	600.20782	-3.35936	1386.07739	-836.20007	
2631	26.300	-798.00250	65.62450	-635.28510	772.70898	63.29238	-612.43555	-729.14056	-27.64415	494.63293	685.54987	-37.67096	600.10382	-3.45627	1385.40002	-837.35059	
2632	26.310	-797.97272	65.00780	-635.65784	772.73438	62.74282	-612.71155	-729.19409	-27.33025	494.51508	685.37231	-37.16232	599.98291	-3.28882	1384.76489	-838.68823	
2633	26.320	-797.93689	64.43831	-635.86310	772.72314	62.27280	-612.90308	-729.26727	-27.05689	494.53241	685.47955	-36.36390	599.71185	-3.10093	1383.82520	-839.86273	
2634	26.330	-797.88440	63.98273	-636.00885	772.71667	61.69873	-613.11694	-729.32788	-26.67502	494.43442	685.39575	-36.17722	599.64478	-3.43218	1382.81921	-841.17456	
2635	26.340	-797.71436	63.16051	-635.79779	772.74127	61.04928	-613.34021	-729.15558	-26.24961	494.25262	685.58527	-35.68417	599.73407	-3.16134	1382.07556	-842.72620	
2636	26.350	-797.77374	62.43635	-636.33557	772.87946	60.43031	-613.50732	-728.91632	-25.86589	494.13068	685.64288	-34.99578	599.58319	-3.34862	1381.45557	-844.10596	
2637	26.360	-797.51086	61.73296	-636.59186	773.04688	59.75974	-613.68860	-728.86145	-25.23864	494.04721	685.77014	-34.56505	599.44037	-3.27146	1380.55237	-845.72247	
2638	26.370	-797.17773	61.03538	-637.05096	773.10327	59.08550	-613.89349	-728.78790	-24.65545	493.95877	685.82391	-34.34427	599.36676	-2.93041	1379.61499	-847.59290	
2639	26.380	-796.78900	60.70141	-636.91980	773.37866	58.43106	-614.13342	-728.70178	-24.07842	493.78546	686.20642	-33.60585	599.26868	-2.85053	1378.43945	-849.05426	
2640	26.390	-796.99512	60.07920	-637.66388	773.64459	57.70090	-614.37427	-728.42450	-23.69454	493.65775	686.33221	-32.69720	599.04504	-2.24181	1377.53870	-850.91052	
2641	26.400	-796.77606	58.90403	-637.58521	773.82404	56.91848	-614.55444	-728.09265	-23.31551	493.56833	686.61957	-32.26982	598.85028	-2.13970	1376.59143	-852.62018	
2642	26.410	-796.56555	58.26250	-637.65851	774.10559	56.18457	-614.79614	-727.92847	-22.94455	493.44592	686.44891	-31.68079	598.81250	-1.56845	1375.73547	-854.43793	
2643	26.420	-796.64508	57.74187	-638.07581	774.20087	55.39372	-615.07013	-727.80768	-22.14707	493.15854	686.93604	-30.76041	598.72174	-1.99283	1374.54724	-856.08875	
2644	26.430	-796.51465	56.95298	-638.36078	774.44421	54.67710	-615.35681	-727.59192	-21.45862	493.04590	687.26465	-30.16699	598.55420	-1.43656	1373.60364	-857.83209	
2645	26.440	-796.15649	56.03656	-638.57440	774.71619	53.95561	-615.55035	-727.48224	-20.93395	492.88220	687.27789	-29.57738	598.45361	-1.64322	1372.35510	-859.55316	
2646	26.450	-795.72937	55.16365	-638.85394	774.86407	53.05442	-615.84680	-727.12561	-20.34817	492.80313	687.44904	-29.06162	598.27148	-0.84190	1371.59473	-861.56537	
2647	26.460	-795.35144	54.27624	-639.05103	775.29266	52.23012	-615.98889	-726.78613	-19.95770	492.76456	687.93713	-28.20052	598.01843	-0.74036	1370.06909	-863.41663	
2648	26.470	-795.00806	53.43518	-639.13867	775.55090	51.39155	-616.25830	-726.42932	-19.30521	492.41373	688.20612	-27.38074	597.82239	-0.32621	1369.24939	-865.44214	
2649	26.480	-794.83795	52.52524	-639.34082	775.76581	50.55716	-616.58618	-726.24701	-18.80206	492.35678	688.47009	-27.01861	597.78351	-0.25615	1367.90955	-867.25916	
2650	26.490	-794.52875	51.73476	-639.77539	776.00537	49.78993	-616.80469	-726.11438	-18.07495	492.32022	688.71185	-26.01388	597.62292	-0.17505	1366.88635	-869.37073	
2651	26.500	-794.23340	50.95514	-639.80719	776.38458	48.73996	-617.07599	-725.86371	-17.26976	491.99640	688.83832	-25.28645	597.39893	0.08556	1365.44397	-871.07220	
2652	26.510	-793.92981	49.87207	-639.83063	776.57831	47.94328	-617.27759	-725.55084	-16.78491	491.80215	689.14417	-24.70196	597.26227	0.61803	1364.46167	-873.44556	
2653	26.520	-793.75696	48.82333	-640.38306	777.04480	46.99855	-617.54742	-724.97681	-16.28375	491.66916	689.74365	-23.75289	597.07263	1.16207	1363.09009	-875.51489	
2654	26.530	-793.26233	47.94913	-641.02582	777.31885	46.11219	-617.81274	-724.64252	-15.63972	491.36618	690.00586	-23.04365	596.97516	1.31454	1362.01440	-877.59399	
2655	26.540	-792.95081	47.39176	-641.31238	777.64935	45.18526	-618.18042	-724.32703	-14.87884	491.06885	690.07489	-22.21828	596.71167	2.00440	1360.48206	-879.90863	
2656	26.550	-792.49878	45.93108	-641.18915	777.99451	44.19085	-618.40149	-724.02551	-14.08366	490.99814	690.68005	-21.31571	596.63849	2.26917	1359.34973	-881.97607	
2657	26.560	-792.45093	45.23151	-641.58020	778.23126	43.33721	-618.70789	-723.77740	-13.48529	490.85580	690.88385	-20.72995	596.45044	2.70272	1357.94910	-884.47009	
2658	26.570	-792.30408	44.46449	-642.02625	778.57056	42.33454	-618.96948	-723.61853	-12.91966	490.60922	691.00696	-19.80959	596.12683	2.60295	1356.68616	-886.33698	
2659	26.580	-792.01514	43.63175	-642.14020	778.92957	41.46585	-619.35498	-723.14252	-12.05217	490.45752	691.68994	-19.03897	595.97095	2.79874	1355.37000	-888.72510	
2660	26.590	-791.40527	42.45418	-642.51440	779.14465	40.38223	-619.61169	-722.84998	-11.32691	490.25436	691.98462	-18.22095	595.66193	3.72040	1354.04114	-891.16736	
2661	26.600	-791.02173	41.00108	-642.60504	779.56244	39.32521	-619.89679	-722.53387	-10.56926	490.02939	692.14752	-17.43793	595.54987	4.07261	1352.33838	-893.37677	
2662	26.610	-790.54321	40.25973	-642.75256	779.77490	38.36241	-620.21423	-722.15399	-10.00038	489.92490	692.63666	-16.42436	595.39172	4.18223	1351.01208	-895.86292	
2663	26.620	-790.29987	39.66917	-643.43329	780.30450	37.41304	-620.53564	-721.69049	-9.33223	489.50537	692.82635	-15.78765	595.16290	4.48267	1349.77808	-897.91663	
2664	26.630	-789.92145	38.26217	-643.62170	780.76563	36.44987	-620.70087	-721.14758	-8.73806	489.40250	693.41040	-14.84793	594.93927	4.73603	1348.25330	-900.08124	
2665	26.640	-789.62354	37.26787	-643.76172	781.09552	35.35339	-621.07025	-720.96613	-7.79311	489.17740	693.75867	-13.76663	594.89850	5.48236	1347.02905	-902.39856	
2666	26.650	-789.24762	36.29177	-644.19141	781.39337	34.43441	-621.31769	-720.58868	-7.23990	488.93106	693.95801	-13.24093	594.63025	6.11289	1345.38989	-904.75879	
2667	26.660	-788.48682	35.04467	-644.57367	781.27765	33.17494	-621.99500	-720.20789	-6.60631	488.77805	694.63110	-11.95155	594.39807	5.90478	1343.97070	-907.14325	
